<svg version="1.1" id="Layer_1" xmlns="http://www.w3.org/2000/svg" xmlns:xlink="http://www.w3.org/1999/xlink" x="0px" y="0px"
	 width="100%" viewBox="0 0 1024 1024" enable-background="new 0 0 1024 1024" xml:space="preserve">
<path fill="#FEFFFF" opacity="1.000000" stroke="none" 
	d="
M578.000000,1025.000000 
	C385.333344,1025.000000 193.166672,1025.000000 1.000000,1025.000000 
	C1.000000,683.666687 1.000000,342.333344 1.000000,1.000000 
	C342.333344,1.000000 683.666687,1.000000 1025.000000,1.000000 
	C1025.000000,342.333344 1025.000000,683.666687 1025.000000,1025.000000 
	C876.166687,1025.000000 727.333313,1025.000000 578.000000,1025.000000 
M849.449707,163.194778 
	C848.909912,163.271423 848.370178,163.348053 846.935547,163.216995 
	C838.000977,163.337326 829.066406,163.457672 819.326843,163.345261 
	C818.499878,163.421585 817.672852,163.497925 815.960815,163.305954 
	C792.298767,163.368179 768.636780,163.430405 744.062744,163.284271 
	C736.970398,163.378082 729.878113,163.471893 721.906250,163.307877 
	C707.656677,163.390091 693.407043,163.472305 678.271545,163.330032 
	C676.454041,163.405380 674.636475,163.480713 671.960571,163.294800 
	C668.672852,163.377548 665.385071,163.460281 661.490601,163.363678 
	C661.288208,163.423233 661.085876,163.482803 659.990234,163.288742 
	C641.047302,163.380493 622.104309,163.472244 602.340088,163.331802 
	C592.162781,163.403763 581.985535,163.475723 570.926880,163.286057 
	C557.692444,163.358200 544.457947,163.430359 530.411133,163.284225 
	C525.283386,163.346298 520.155640,163.408356 514.237549,163.233963 
	C513.149902,163.314438 512.062195,163.394928 510.304504,163.273331 
	C509.141052,163.349762 507.977600,163.426193 506.279510,163.272171 
	C505.907257,163.349289 505.534973,163.426422 504.307312,163.297256 
	C503.143280,163.369263 501.979248,163.441269 499.929535,163.267670 
	C485.611359,163.339218 471.293182,163.410767 456.062408,163.275513 
	C446.051208,163.341980 436.040009,163.408432 425.282928,163.238266 
	C424.513275,163.318130 423.743591,163.397995 422.064514,163.274612 
	C417.052704,163.348206 412.040924,163.421814 406.213257,163.253311 
	C401.190094,163.346024 396.166931,163.438736 390.329651,163.319077 
	C389.497925,163.392044 388.666199,163.465012 387.287109,163.296509 
	C386.905304,163.377579 386.523468,163.458633 385.329193,163.324692 
	C384.498779,163.398987 383.668335,163.473267 382.054840,163.293839 
	C380.423218,163.381470 378.791565,163.469086 376.253204,163.334076 
	C373.775116,163.410522 371.297028,163.486984 367.949677,163.303101 
	C364.022095,163.379623 360.094543,163.456131 355.257233,163.314880 
	C352.772064,163.384613 350.286926,163.454330 346.962860,163.274216 
	C344.343048,163.347061 341.723236,163.419907 338.488861,163.329605 
	C338.284302,163.384979 338.079712,163.440369 336.993256,163.258453 
	C333.048950,163.340088 329.104675,163.421722 324.487671,163.299927 
	C323.334747,163.360550 322.181793,163.421173 320.252838,163.244217 
	C316.893555,163.335556 313.534302,163.426910 309.286835,163.306747 
	C301.111176,163.369232 292.935486,163.431717 283.945465,163.263504 
	C279.955444,163.327972 275.965424,163.392426 271.143372,163.253250 
	C269.437561,163.315475 267.731750,163.377686 265.236603,163.202972 
	C264.149780,163.280197 263.062958,163.357422 261.178925,163.231247 
	C259.036957,163.303406 256.895020,163.375565 253.983093,163.221237 
	C252.316193,163.205078 250.648987,163.160110 248.982422,163.177292 
	C235.169586,163.319717 223.742310,171.023056 219.132156,184.062759 
	C204.993729,224.052872 191.067749,264.118134 177.098679,304.167969 
	C176.374878,306.243134 176.017990,308.446259 175.356949,311.131317 
	C260.858643,311.131317 345.590088,311.131317 430.912354,311.131317 
	C430.912354,313.297119 430.912598,315.087585 430.912323,316.878052 
	C430.896545,420.354462 430.880493,523.830872 430.865143,627.307312 
	C430.858215,673.796692 430.757477,720.286377 430.898926,766.775269 
	C430.947571,782.765808 437.411102,794.961182 452.819855,801.596497 
	C492.978546,818.889465 533.064575,836.351074 573.187988,853.725952 
	C579.357666,856.397644 585.571655,858.966919 592.517517,861.901489 
	C592.517517,677.795532 592.517517,494.595917 592.517517,311.191040 
	C594.332397,311.092438 595.640198,310.958893 596.947998,310.959259 
	C655.434631,310.976257 713.921265,310.982330 772.407898,311.044342 
	C793.769104,311.066956 804.121887,303.412842 810.740479,283.230408 
	C818.199890,260.483734 826.038147,237.861298 833.703430,215.182083 
	C839.238342,198.805969 844.759949,182.425385 850.352234,165.903641 
	C850.352234,165.903641 850.381531,165.749268 850.941406,165.303970 
	C850.617310,164.666107 850.293213,164.028244 849.449707,163.194778 
z"/>
<path fill="#9A1E1F" opacity="1.000000" stroke="none" 
	d="
M456.975006,163.482315 
	C471.293182,163.410767 485.611359,163.339218 500.576111,163.736755 
	C502.536041,163.971725 503.849365,163.737640 505.162720,163.503540 
	C505.534973,163.426422 505.907257,163.349289 506.718872,163.708252 
	C508.430359,163.921371 509.702454,163.698395 510.974548,163.475403 
	C512.062195,163.394928 513.149902,163.314438 514.775391,163.703339 
	C520.616638,163.949310 525.920105,163.725922 531.223511,163.502518 
	C544.457947,163.430359 557.692444,163.358200 571.627563,163.788025 
	C582.128052,164.469421 591.927734,164.666809 601.728333,164.773453 
	C602.201538,164.778625 602.683472,163.985397 603.161377,163.563965 
	C622.104309,163.472244 641.047302,163.380493 660.541321,163.654480 
	C661.427368,163.861160 661.762390,163.702103 662.097351,163.543030 
	C665.385071,163.460281 668.672852,163.377548 672.617676,163.776062 
	C675.235657,164.023056 677.196594,163.788788 679.157471,163.554520 
	C693.407043,163.472305 707.656677,163.390091 722.609863,163.801010 
	C730.119080,164.485229 736.924377,164.700531 743.731323,164.807129 
	C744.138794,164.813507 744.559937,163.950867 744.974731,163.492615 
	C768.636780,163.430405 792.298767,163.368179 816.587708,163.763733 
	C818.187012,164.007004 819.159424,163.792511 820.131836,163.578018 
	C829.066406,163.457672 838.000977,163.337326 847.456177,163.719803 
	C848.747070,164.830673 849.517334,165.438736 850.287537,166.046799 
	C844.759949,182.425385 839.238342,198.805969 833.703430,215.182083 
	C826.038147,237.861298 818.199890,260.483734 810.740479,283.230408 
	C804.121887,303.412842 793.769104,311.066956 772.407898,311.044342 
	C713.921265,310.982330 655.434631,310.976257 596.947998,310.959259 
	C595.640198,310.958893 594.332397,311.092438 592.517517,311.191040 
	C592.517517,494.595917 592.517517,677.795532 592.517517,861.901489 
	C585.571655,858.966919 579.357666,856.397644 573.187988,853.725952 
	C533.064575,836.351074 492.978546,818.889465 452.819855,801.596497 
	C437.411102,794.961182 430.947571,782.765808 430.898926,766.775269 
	C430.757477,720.286377 430.858215,673.796692 430.865143,627.307312 
	C430.880493,523.830872 430.896545,420.354462 430.912323,316.878052 
	C430.912598,315.087585 430.912354,313.297119 430.912354,311.131317 
	C345.590088,311.131317 260.858643,311.131317 175.356949,311.131317 
	C176.017990,308.446259 176.374878,306.243134 177.098679,304.167969 
	C191.067749,264.118134 204.993729,224.052872 219.132156,184.062759 
	C223.742310,171.023056 235.169586,163.319717 248.982422,163.177292 
	C250.648987,163.160110 252.316193,163.205078 254.584717,163.687347 
	C257.449615,163.913864 259.712860,163.674255 261.976135,163.434647 
	C263.062958,163.357422 264.149780,163.280197 265.741669,163.641754 
	C268.156281,163.872650 270.065857,163.664764 271.975403,163.456879 
	C275.965424,163.392426 279.955444,163.327972 284.611450,163.753479 
	C293.106934,164.433945 300.936127,164.647049 308.766785,164.758026 
	C309.230286,164.764587 309.705353,163.950470 310.175018,163.518250 
	C313.534302,163.426910 316.893555,163.335556 320.751709,163.679565 
	C322.553864,163.911057 323.857117,163.707214 325.160370,163.503357 
	C329.104675,163.421722 333.048950,163.340088 337.538635,163.625198 
	C338.423828,163.825546 338.763611,163.659149 339.103424,163.492752 
	C341.723236,163.419907 344.343048,163.347061 347.622986,163.762299 
	C350.911072,164.011139 353.539001,163.771896 356.166962,163.532639 
	C360.094543,163.456131 364.022095,163.379623 368.625854,163.790604 
	C371.921356,164.037643 374.540649,163.797165 377.159943,163.556702 
	C378.791565,163.469086 380.423218,163.381470 382.630554,163.750244 
	C384.184723,163.984329 385.163177,163.762009 386.141663,163.539703 
	C386.523468,163.458633 386.905304,163.377579 387.744995,163.748474 
	C389.183167,163.977432 390.163452,163.754440 391.143768,163.531433 
	C396.166931,163.438736 401.190094,163.346024 406.766479,163.722748 
	C412.537750,163.954071 417.755859,163.715958 422.973938,163.477844 
	C423.743591,163.397995 424.513275,163.318130 425.799377,163.707672 
	C426.883789,164.444443 427.450348,164.941208 428.020020,164.944809 
	C436.762939,165.000412 445.506775,165.036499 454.248657,164.931580 
	C455.163086,164.920593 456.066498,163.987549 456.975006,163.482315 
z"/>
<path fill="#901214" opacity="1.000000" stroke="none" 
	d="
M456.518707,163.378906 
	C456.066498,163.987549 455.163086,164.920593 454.248657,164.931580 
	C445.506775,165.036499 436.762939,165.000412 428.020020,164.944809 
	C427.450348,164.941208 426.883789,164.444443 426.172302,163.825989 
	C436.040009,163.408432 446.051208,163.341980 456.518707,163.378906 
z"/>
<path fill="#901214" opacity="1.000000" stroke="none" 
	d="
M602.750732,163.447876 
	C602.683472,163.985397 602.201538,164.778625 601.728333,164.773453 
	C591.927734,164.666809 582.128052,164.469421 572.068237,163.918839 
	C581.985535,163.475723 592.162781,163.403763 602.750732,163.447876 
z"/>
<path fill="#901214" opacity="1.000000" stroke="none" 
	d="
M744.518738,163.388428 
	C744.559937,163.950867 744.138794,164.813507 743.731323,164.807129 
	C736.924377,164.700531 730.119080,164.485229 723.049561,163.929932 
	C729.878113,163.471893 736.970398,163.378082 744.518738,163.388428 
z"/>
<path fill="#901214" opacity="1.000000" stroke="none" 
	d="
M309.730927,163.412506 
	C309.705353,163.950470 309.230286,164.764587 308.766785,164.758026 
	C300.936127,164.647049 293.106934,164.433945 285.018616,163.868835 
	C292.935486,163.431717 301.111176,163.369232 309.730927,163.412506 
z"/>
<path fill="#901214" opacity="1.000000" stroke="none" 
	d="
M422.519226,163.376221 
	C417.755859,163.715958 412.537750,163.954071 407.174377,163.843811 
	C412.040924,163.421814 417.052704,163.348206 422.519226,163.376221 
z"/>
<path fill="#901214" opacity="1.000000" stroke="none" 
	d="
M530.817322,163.393372 
	C525.920105,163.725922 520.616638,163.949310 515.170532,163.821564 
	C520.155640,163.408356 525.283386,163.346298 530.817322,163.393372 
z"/>
<path fill="#901214" opacity="1.000000" stroke="none" 
	d="
M261.577515,163.332947 
	C259.712860,163.674255 257.449615,163.913864 254.969696,163.800598 
	C256.895020,163.375565 259.036957,163.303406 261.577515,163.332947 
z"/>
<path fill="#901214" opacity="1.000000" stroke="none" 
	d="
M271.559387,163.355072 
	C270.065857,163.664764 268.156281,163.872650 266.136353,163.760208 
	C267.731750,163.377686 269.437561,163.315475 271.559387,163.355072 
z"/>
<path fill="#901214" opacity="1.000000" stroke="none" 
	d="
M355.712097,163.423767 
	C353.539001,163.771896 350.911072,164.011139 348.042419,163.887207 
	C350.286926,163.454330 352.772064,163.384613 355.712097,163.423767 
z"/>
<path fill="#901214" opacity="1.000000" stroke="none" 
	d="
M376.706573,163.445389 
	C374.540649,163.797165 371.921356,164.037643 369.060486,163.920776 
	C371.297028,163.486984 373.775116,163.410522 376.706573,163.445389 
z"/>
<path fill="#901214" opacity="1.000000" stroke="none" 
	d="
M510.639526,163.374359 
	C509.702454,163.698395 508.430359,163.921371 506.986206,163.823486 
	C507.977600,163.426193 509.141052,163.349762 510.639526,163.374359 
z"/>
<path fill="#901214" opacity="1.000000" stroke="none" 
	d="
M324.824036,163.401642 
	C323.857117,163.707214 322.553864,163.911057 321.139740,163.798340 
	C322.181793,163.421173 323.334747,163.360550 324.824036,163.401642 
z"/>
<path fill="#901214" opacity="1.000000" stroke="none" 
	d="
M850.319885,165.975220 
	C849.517334,165.438736 848.747070,164.830673 847.903625,163.823639 
	C848.370178,163.348053 848.909912,163.271423 849.733765,163.691772 
	C850.139099,164.708939 850.260315,165.229095 850.381531,165.749268 
	C850.381531,165.749268 850.352234,165.903641 850.319885,165.975220 
z"/>
<path fill="#901214" opacity="1.000000" stroke="none" 
	d="
M678.714478,163.442276 
	C677.196594,163.788788 675.235657,164.023056 673.046875,163.906693 
	C674.636475,163.480713 676.454041,163.405380 678.714478,163.442276 
z"/>
<path fill="#901214" opacity="1.000000" stroke="none" 
	d="
M504.735016,163.400406 
	C503.849365,163.737640 502.536041,163.971725 501.018951,163.859558 
	C501.979248,163.441269 503.143280,163.369263 504.735016,163.400406 
z"/>
<path fill="#901214" opacity="1.000000" stroke="none" 
	d="
M385.735413,163.432190 
	C385.163177,163.762009 384.184723,163.984329 383.022095,163.877106 
	C383.668335,163.473267 384.498779,163.398987 385.735413,163.432190 
z"/>
<path fill="#901214" opacity="1.000000" stroke="none" 
	d="
M390.736694,163.425262 
	C390.163452,163.754440 389.183167,163.977432 388.018677,163.869202 
	C388.666199,163.465012 389.497925,163.392044 390.736694,163.425262 
z"/>
<path fill="#901214" opacity="1.000000" stroke="none" 
	d="
M819.729370,163.461639 
	C819.159424,163.792511 818.187012,164.007004 817.030273,163.897873 
	C817.672852,163.497925 818.499878,163.421585 819.729370,163.461639 
z"/>
<path fill="#9A1E1F" opacity="1.000000" stroke="none" 
	d="
M850.661499,165.526611 
	C850.260315,165.229095 850.139099,164.708939 849.993530,163.789581 
	C850.293213,164.028244 850.617310,164.666107 850.661499,165.526611 
z"/>
<path fill="#901214" opacity="1.000000" stroke="none" 
	d="
M338.796143,163.411179 
	C338.763611,163.659149 338.423828,163.825546 337.979553,163.743835 
	C338.079712,163.440369 338.284302,163.384979 338.796143,163.411179 
z"/>
<path fill="#901214" opacity="1.000000" stroke="none" 
	d="
M661.793945,163.453369 
	C661.762390,163.702103 661.427368,163.861160 660.988037,163.781281 
	C661.085876,163.482803 661.288208,163.423233 661.793945,163.453369 
z"/>
</svg>